<svg width="8" height="15" viewBox="0 0 8 15" fill="none" xmlns="http://www.w3.org/2000/svg">
<path d="M5.8208 2.88082H7.65894C7.82805 2.88082 7.9653 2.75149 7.9653 2.59213V0.860033C7.9653 0.70068 7.82805 0.57135 7.65894 0.57135H5.8208C3.96304 0.57135 2.45086 1.99571 2.45086 3.74687V5.76765H0.306358C0.137248 5.76765 0 5.89698 0 6.05633V7.78843C0 7.94779 0.137248 8.07712 0.306358 8.07712H2.45086V14.1395C2.45086 14.2988 2.58811 14.4282 2.75722 14.4282H4.59537C4.76448 14.4282 4.90172 14.2988 4.90172 14.1395V8.07712H7.04623C7.17796 8.07712 7.29499 7.99744 7.33727 7.87966L7.94998 6.14756C7.98123 6.0598 7.9653 5.9628 7.90771 5.88716C7.8495 5.81211 7.75759 5.76765 7.65894 5.76765H4.90172V3.74687C4.90172 3.26938 5.31408 2.88082 5.8208 2.88082Z" fill="#040F4F"/>
</svg>
