<svg width="15" height="15" viewBox="0 0 15 15" fill="none" xmlns="http://www.w3.org/2000/svg">
<path d="M2.40935 3.9625C3.34574 3.9625 4.10484 3.20341 4.10484 2.26702C4.10484 1.33063 3.34574 0.571533 2.40935 0.571533C1.47296 0.571533 0.713867 1.33063 0.713867 2.26702C0.713867 3.20341 1.47296 3.9625 2.40935 3.9625Z" fill="#040F4F"/>
<path d="M3.82226 5.09521H0.996448C0.840463 5.09521 0.713867 5.22181 0.713867 5.3778V13.8552C0.713867 14.0112 0.840463 14.1378 0.996448 14.1378H3.82226C3.97824 14.1378 4.10484 14.0112 4.10484 13.8552V5.3778C4.10484 5.22181 3.97824 5.09521 3.82226 5.09521Z" fill="#040F4F"/>
<path d="M12.2422 4.62441C11.0344 4.21071 9.52372 4.57411 8.61777 5.22574C8.58668 5.10423 8.47591 5.0138 8.34423 5.0138H5.51842C5.36244 5.0138 5.23584 5.1404 5.23584 5.29638V13.7738C5.23584 13.9298 5.36244 14.0564 5.51842 14.0564H8.34423C8.50022 14.0564 8.62681 13.9298 8.62681 13.7738V7.68137C9.08346 7.28801 9.6718 7.16255 10.1533 7.36714C10.6201 7.56438 10.8875 8.0459 10.8875 8.68735V13.7738C10.8875 13.9298 11.0141 14.0564 11.17 14.0564H13.9958C14.1518 14.0564 14.2784 13.9298 14.2784 13.7738V8.11824C14.2462 5.79599 13.1538 4.93638 12.2422 4.62441Z" fill="#040F4F"/>
</svg>
